# xmcd CD database file
#
# Track frame offsets:
#	150
#	13063
#	23569
#	33806
#	46083
#	54922
#	64955
#	74212
#	87094
#	96255
#	110045
#	118601
#	129096
#	139633
#
# Disc length: 1973 seconds
#
# Revision: 0
# Processed by: cddbd v1.5PL3 Copyright (c) Steve Scherf et al.
# Submitted via: CDex 1.50
#
DISCID=b707b30e
DTITLE=Roy Clark - Absolutely the Best - Volume 1
DYEAR=2003
DGENRE=Country
TTITLE0=Talk about a Party
TTITLE1=As long as I'm movin'
TTITLE2=Chicken Wire
TTITLE3=The tip of my fingers
TTITLE4=Spooky Movies
TTITLE5=Sally was a good old girl
TTITLE6=Goodtime Charlie
TTITLE7=Through the Eyese of Fool
TTITLE8=Alabama Jubilee
TTITLE9=When the Wind Blows (In Chicago)
TTITLE10=Live Fast, Love Hard, Die Young
TTITLE11=Just Like That There
TTITLE12=Turn Around and Look Again
TTITLE13=South
EXTD=YEAR: 2003
EXTT0=
EXTT1=
EXTT2=
EXTT3=
EXTT4=
EXTT5=
EXTT6=
EXTT7=
EXTT8=
EXTT9=
EXTT10=
EXTT11=
EXTT12=
EXTT13=
PLAYORDER=
